<svg xmlns="http://www.w3.org/2000/svg" xmlns:xlink="http://www.w3.org/1999/xlink" id="uuid-d401ccc7-d425-4f3a-b7ca-02e39f4289c1" width="151.19" height="131.93" viewBox="0 0 151.19 131.93"><defs><clipPath id="uuid-68f2c6c4-d58e-4262-90be-91f911186256"><polygon points="27.73 101.72 126.31 90.35 126.31 86.21 27.73 101.72" style="fill:none; stroke-width:0px;"></polygon></clipPath><linearGradient id="uuid-d5d40780-d3c4-4abd-addc-c70434cd13bb" x1="-93.64" y1="293.26" x2="-92.64" y2="293.26" gradientTransform="translate(-9356.83 -29614.64) rotate(-180) scale(101.3 -101.3)" gradientUnits="userSpaceOnUse"><stop offset="0" stop-color="#da9e3c"></stop><stop offset=".05" stop-color="#da9e3c"></stop><stop offset=".09" stop-color="#e3ac55"></stop><stop offset=".17" stop-color="#fbd295"></stop><stop offset=".18" stop-color="#ffd89e"></stop><stop offset=".31" stop-color="#e4ae58"></stop><stop offset=".37" stop-color="#da9e3c"></stop><stop offset="1" stop-color="#da9e3c"></stop></linearGradient><clipPath id="uuid-61edbc23-9793-42ad-8249-af41fdeee4de"><polygon points="28.13 97.39 28.13 98.89 71.74 91.89 28.13 97.39" style="fill:none; stroke-width:0px;"></polygon></clipPath><linearGradient id="uuid-266e03e1-cc16-44df-977f-d9897fb49631" y1="293.26" y2="293.26" gradientTransform="translate(-4021.99 -12726.31) rotate(-180) scale(43.72 -43.72)" xlink:href="#uuid-d5d40780-d3c4-4abd-addc-c70434cd13bb"></linearGradient><clipPath id="uuid-ad1b2e4e-9600-4364-9d9c-1f9537036a49"><polygon points="97.23 60.14 126.7 56.44 126.7 55.46 97.23 60.14" style="fill:none; stroke-width:0px;"></polygon></clipPath><linearGradient id="uuid-5a6e468d-78e6-4aa6-83da-8c4c8eaf8899" y1="293.26" y2="293.26" gradientTransform="translate(2863.46 8721.72) scale(29.54 -29.54)" xlink:href="#uuid-d5d40780-d3c4-4abd-addc-c70434cd13bb"></linearGradient><clipPath id="uuid-62594fe5-9812-442a-a15c-0be4b6db04d3"><path d="m62.36,37.34l-2.05-1.45-.05-.03c-1.05-.61-2.4-.25-3.01.8-.61,1.05-.25,2.4.8,3.01l1.81.84c-.67,1.05-1.25,2.17-1.72,3.35l-1.82-.65-.06-.02c-1.17-.3-2.38.41-2.68,1.59-.15.57-.06,1.16.24,1.67.3.5.78.86,1.35,1.01l1.86.3c-.2,1.15-.32,2.33-.32,3.54,0,.04,0,.07,0,.11,0,.18,0,.37.01.55,0,.1,0,.2,0,.3,0,.04,0,.09,0,.14l-2.33.34h-.06c-.57.15-1.06.49-1.37.99-.31.5-.4,1.09-.27,1.66.23.97,1.09,1.67,2.08,1.7.02,0,.04,0,.06,0,.17,0,.34-.02.5-.06l2.01-.66c.39,1.5.95,2.93,1.66,4.28l-30.91,3.58v4.14l29.95-4.71c.46-.59,1.14-1.15,1.93-1.65-.04-.06-.07-.12-.1-.19-.08-.14-.16-.29-.23-.43,0,0,0,0,0-.01-.11-.21-.22-.43-.32-.65,0-.02-.02-.04-.03-.06,0,0,0,0,0,0-.08-.16-.15-.33-.22-.49-.03-.07-.06-.13-.08-.2-.07-.16-.13-.32-.2-.49-.02-.06-.04-.12-.07-.17-.21-.56-.4-1.13-.56-1.71-.01-.04-.02-.09-.04-.13-.05-.18-.1-.37-.14-.56-.01-.05-.03-.1-.04-.16-.09-.41-.18-.83-.25-1.26l-2.54.83c-.13.03-.25.04-.38.04-.66-.02-1.25-.47-1.41-1.14-.19-.8.31-1.6,1.1-1.78l2.98-.43c0-.19,0-.38,0-.57,0-1.81.25-3.56.71-5.22l-2.86-.46c-.79-.2-1.27-1.01-1.07-1.81.2-.79,1.01-1.27,1.8-1.07l2.91,1.04c.66-1.59,1.54-3.07,2.57-4.41l-3.16-1.47c-.71-.41-.95-1.32-.54-2.03.41-.71,1.32-.95,2.03-.54l3.21,2.27c3.53-3.58,8.44-5.8,13.86-5.8,10.76,0,19.49,8.72,19.49,19.49,0,1.83-.26,3.6-.73,5.29l.12-.02,30.85-4.85-30.46,3.51c.42-1.62.66-3.32.66-5.07,0-11.1-8.99-20.09-20.09-20.09-5.67,0-10.79,2.36-14.45,6.14" style="fill:none; stroke-width:0px;"></path></clipPath><linearGradient id="uuid-bbdaf544-e088-4660-aa5d-7caae289522a" x1="-93.64" y1="293.26" x2="-92.64" y2="293.26" gradientTransform="translate(8247.08 25794.19) scale(87.79 -87.79)" gradientUnits="userSpaceOnUse"><stop offset="0" stop-color="#da9e3c"></stop><stop offset=".05" stop-color="#da9e3c"></stop><stop offset=".09" stop-color="#e3ac55"></stop><stop offset=".17" stop-color="#fbd295"></stop><stop offset=".18" stop-color="#ffd89e"></stop><stop offset=".24" stop-color="#f0c076"></stop><stop offset=".32" stop-color="#da9e3c"></stop><stop offset="1" stop-color="#da9e3c"></stop></linearGradient></defs><g id="uuid-12bdeddc-9611-417e-a0e8-c0d7ada1abcd"><polygon points="151.19 114.48 151.19 0 0 0 0 131.93 151.19 114.48" style="fill:#ce202f; stroke-width:0px;"></polygon><g style="clip-path:url(#uuid-68f2c6c4-d58e-4262-90be-91f911186256);"><rect x="27.73" y="86.21" width="98.57" height="15.51" style="fill:url(#uuid-d5d40780-d3c4-4abd-addc-c70434cd13bb); stroke-width:0px;"></rect></g><path d="m47.14,74.45c.16.27.21.48.21.8,0,.4-.23.77-.69,1.11-.67.49-1.69.92-2.62,1.1h-.04s-.01-.03-.01-.03c-.62-1.6-1.78-2.32-3.34-2.1-2.22.32-3.66,2.35-3.66,5.17,0,3.41,2.16,5.3,5.49,4.82,1.37-.2,2.75-.71,3.69-1.37l.05-.03.03.04c.32.4.59,1.14.59,1.65,0,1.03-2.43,2.68-5.15,3.07-5.09.73-8.64-2.37-8.64-7.54,0-4.68,3.18-8.41,7.73-9.06,2.87-.41,5.26.48,6.39,2.38m16.83,2.67c0,5.78-4.01,8.94-7.98,9.51-4.78.69-8-2.22-8-7.22s3.21-8.83,8-9.51c3.97-.57,7.98,1.44,7.98,7.22m-3.95.75c0-3.13-1.71-5.07-4.16-4.71-1.89.27-3.91,1.86-3.91,5.51,0,3.13,1.71,5.07,4.16,4.71,1.89-.27,3.91-1.86,3.91-5.5m28.62-4.29c0,5.78-4.01,8.94-7.98,9.51-4.79.68-8-2.22-8-7.22s3.22-8.83,8-9.51c3.97-.57,7.98,1.44,7.98,7.22m-3.95.75c0-3.13-1.71-5.07-4.16-4.71-1.89.27-3.91,1.86-3.91,5.5,0,3.13,1.71,5.07,4.16,4.71,1.89-.27,3.91-1.86,3.91-5.5m-18.86-4.4l-.02.72v14.3l4.05-.58v-9.14c0-2.42,1.69-5.35,3.81-7.46.54-.54,1.16-1.02,1.83-1.48,2.72-1.89,4.85-2.11,5.61-2.94.86-.94,1.75-2.59,1.95-3.86-1.05-.14-3.65.53-5.89,1.85-3.86,2.28-6.77,6.18-7.85,8.1-.94-.56-2.56-.32-3.48.5m39.48,6.51l-.48.07c-.47.07-1.08.13-1.29-.31-.24-.49-.16-1.1-.16-4.73,0-.22,0-.41-.03-.59v-2.68s0-.06,0-.09v-1.05c0-2.51-1.13-3.98-4.97-3.43-1.71.25-3.06,1.31-4.13,2.22-.94-.57-3.04-.25-3.96.57l-.02,15.01,4.04-.58v-12.31c1.29-.96,2.25-1.43,3.03-1.54,1.25-.18,2.03.59,2.07,1.96v7.78s0,.04,0,.06c0,2.1,1.5,3.4,3.23,3.15,2.09-.3,3.12-1.91,2.68-3.51m13.93,1.13c-.94.13-1.81-.19-2.41-.85-1.16.97-2.54,1.56-3.94,1.76-4.36.62-7.29-2.32-7.29-7.32s3.66-8.89,8.02-9.52c4.12-.59,6.37.39,6.37.39v6.12c0,.07,0,.15,0,.23,0,.76,0,1.38,0,1.9,0,.33,0,.63,0,.9-.01,1.82-.02,2.27.16,2.64.22.44.82.38,1.29.31l.48-.07c.02.08.04.15.05.23.29,1.52-.74,3-2.73,3.28m-2.68-7.8c0-1.95-.02-5.01-.02-5.01,0,0-1.53-.21-3.46.2-1.72.36-3.88,1.85-3.88,5.5,0,3.13,1.56,5.09,3.79,4.77,1.72-.25,3.56-1.81,3.56-5.46" style="fill:#fff; stroke-width:0px;"></path><path d="m103.55,82.97c.14-.02.21.03.21.17v4.35l-.7.1c-.16.02-.22-.02-.22-.14v-3.36l-.88.67c-.14-.07-.31-.18-.4-.29-.04-.06-.07-.11-.07-.16,0-.09.05-.16.18-.25l1.31-1.01.57-.08Z" style="fill:#fff; stroke-width:0px;"></path><path d="m106.25,84c0-.86.63-1.59,1.65-1.73,1.15-.17,1.93.55,1.93,1.92v.13c0,1.59-.85,2.5-2,2.66-.67.1-1.3-.16-1.3-.42,0-.14.07-.32.13-.43.28.13.65.17.99.12.64-.09,1.19-.52,1.26-1.49-.26.25-.64.43-1.04.49-.89.13-1.61-.36-1.61-1.24m.92-.17c0,.49.37.72.87.65.31-.04.63-.18.86-.39-.05-.77-.46-1.14-1.02-1.06-.39.06-.71.36-.71.8" style="fill:#fff; stroke-width:0px;"></path><path d="m113.65,81.5c.14-.02.21.03.21.17v4.35l-.7.1c-.16.02-.22-.02-.22-.14v-3.36l-.88.67c-.14-.07-.31-.18-.4-.29-.04-.06-.07-.11-.07-.16,0-.09.05-.16.18-.25l1.31-1.01.57-.08Z" style="fill:#fff; stroke-width:0px;"></path><path d="m116.36,82.53c0-.86.63-1.59,1.65-1.73,1.15-.17,1.93.55,1.93,1.92v.13c0,1.59-.85,2.5-2,2.66-.67.1-1.3-.16-1.3-.42,0-.14.07-.32.13-.43.28.13.64.17.99.12.64-.09,1.19-.52,1.26-1.5-.26.25-.64.43-1.04.49-.89.13-1.61-.36-1.61-1.24m.92-.17c0,.49.37.72.87.65.31-.04.63-.18.86-.39-.05-.77-.46-1.14-1.02-1.06-.39.06-.71.36-.71.8" style="fill:#fff; stroke-width:0px;"></path><path d="m103.55,82.97c.14-.02.21.03.21.17v4.35l-.7.1c-.16.02-.22-.02-.22-.14v-3.36l-.88.67c-.14-.07-.31-.18-.4-.29-.04-.06-.07-.11-.07-.16,0-.09.05-.16.18-.25l1.31-1.01.57-.08Z" style="fill:#fff; stroke-width:0px;"></path><path d="m106.25,84c0-.86.63-1.59,1.65-1.73,1.15-.17,1.93.55,1.93,1.92v.13c0,1.59-.85,2.5-2,2.66-.67.1-1.3-.16-1.3-.42,0-.14.07-.32.13-.43.28.13.65.17.99.12.64-.09,1.19-.52,1.26-1.49-.26.25-.64.43-1.04.49-.89.13-1.61-.36-1.61-1.24m.92-.17c0,.49.37.72.87.65.31-.04.63-.18.86-.39-.05-.77-.46-1.14-1.02-1.06-.39.06-.71.36-.71.8" style="fill:#fff; stroke-width:0px;"></path><path d="m113.65,81.5c.14-.02.21.03.21.17v4.35l-.7.1c-.16.02-.22-.02-.22-.14v-3.36l-.88.67c-.14-.07-.31-.18-.4-.29-.04-.06-.07-.11-.07-.16,0-.09.05-.16.18-.25l1.31-1.01.57-.08Z" style="fill:#fff; stroke-width:0px;"></path><path d="m116.36,82.53c0-.86.63-1.59,1.65-1.73,1.15-.17,1.93.55,1.93,1.92v.13c0,1.59-.85,2.5-2,2.66-.67.1-1.3-.16-1.3-.42,0-.14.07-.32.13-.43.28.13.64.17.99.12.64-.09,1.19-.52,1.26-1.5-.26.25-.64.43-1.04.49-.89.13-1.61-.36-1.61-1.24m.92-.17c0,.49.37.72.87.65.31-.04.63-.18.86-.39-.05-.77-.46-1.14-1.02-1.06-.39.06-.71.36-.71.8" style="fill:#fff; stroke-width:0px;"></path><path d="m76.31,90.42c0-.3-.19-.45-.84-.53-.94-.13-1.45-.51-1.45-1.27s.63-1.41,1.56-1.55c.75-.11,1.28.16,1.51.51.06.08.08.15.08.24,0,.08-.04.18-.15.25-.17.11-.42.2-.63.25-.13-.37-.41-.54-.8-.49-.38.05-.65.31-.65.63s.24.49.97.6c.9.14,1.32.51,1.32,1.18,0,.75-.61,1.38-1.64,1.53-.83.12-1.41-.14-1.41-.39,0-.12.06-.32.13-.43.33.11.76.14,1.16.08.57-.08.83-.32.83-.62" style="fill:#fff; stroke-width:0px;"></path><path d="m79.79,91.1c-.16.02-.22-.02-.22-.14v-4.35c.19-.08.4-.14.66-.17.18-.03.26.02.26.16v4.4l-.7.1Z" style="fill:#fff; stroke-width:0px;"></path><path d="m83.95,87.5v2.99l-.69.1c-.16.02-.22-.03-.22-.14v-4.16c.19-.18.49-.34.64-.36.13-.02.19.02.25.1l1.8,2.65v-2.99l.69-.1c.16-.02.22.03.22.14v4.16c-.2.18-.49.34-.64.36-.13.02-.2-.02-.25-.1l-1.79-2.65Z" style="fill:#fff; stroke-width:0px;"></path><path d="m90.9,85.62c-.62.09-1.17.68-1.17,1.61,0,1.09.69,1.64,1.7,1.5.37-.05.75-.19,1.04-.38.07.09.13.25.13.39,0,.25-.61.67-1.35.78-1.39.2-2.44-.62-2.44-2.13,0-1.38.94-2.36,2.13-2.53.84-.12,1.47.17,1.76.68.04.07.05.12.05.2,0,.07-.04.16-.16.24-.16.12-.41.22-.62.27-.18-.47-.55-.7-1.07-.62" style="fill:#fff; stroke-width:0px;"></path><path d="m95.9,88.76c-.95.14-1.21-.35-1.21-1.22v-3.15l2.68-.39c.12-.02.19.04.19.21s-.03.36-.06.53l-1.89.27v1.16l1.43-.21c.12-.02.18.04.18.2v.53l-1.6.23v.53c0,.49.12.6.44.55l1.39-.2c.12-.02.18.04.18.2v.53l-1.71.25Z" style="fill:#fff; stroke-width:0px;"></path><path d="m76.31,90.42c0-.3-.19-.45-.84-.53-.94-.13-1.45-.51-1.45-1.27s.63-1.41,1.56-1.55c.75-.11,1.28.16,1.51.51.06.08.08.15.08.24,0,.08-.04.18-.15.25-.17.11-.42.2-.63.25-.13-.37-.41-.54-.8-.49-.38.05-.65.31-.65.63s.24.49.97.6c.9.14,1.32.51,1.32,1.18,0,.75-.61,1.38-1.64,1.53-.83.12-1.41-.14-1.41-.39,0-.12.06-.32.13-.43.33.11.76.14,1.16.08.57-.08.83-.32.83-.62" style="fill:#fff; stroke-width:0px;"></path><path d="m79.79,91.1c-.16.02-.22-.02-.22-.14v-4.35c.19-.08.4-.14.66-.17.18-.03.26.02.26.16v4.4l-.7.1Z" style="fill:#fff; stroke-width:0px;"></path><path d="m83.95,87.5v2.99l-.69.1c-.16.02-.22-.03-.22-.14v-4.16c.19-.18.49-.34.64-.36.13-.02.19.02.25.1l1.8,2.65v-2.99l.69-.1c.16-.02.22.03.22.14v4.16c-.2.18-.49.34-.64.36-.13.02-.2-.02-.25-.1l-1.79-2.65Z" style="fill:#fff; stroke-width:0px;"></path><path d="m90.9,85.62c-.62.09-1.17.68-1.17,1.61,0,1.09.69,1.64,1.7,1.5.37-.05.75-.19,1.04-.38.07.09.13.25.13.39,0,.25-.61.67-1.35.78-1.39.2-2.44-.62-2.44-2.13,0-1.38.94-2.36,2.13-2.53.84-.12,1.47.17,1.76.68.04.07.05.12.05.2,0,.07-.04.16-.16.24-.16.12-.41.22-.62.27-.18-.47-.55-.7-1.07-.62" style="fill:#fff; stroke-width:0px;"></path><path d="m95.9,88.76c-.95.14-1.21-.35-1.21-1.22v-3.15l2.68-.39c.12-.02.19.04.19.21s-.03.36-.06.53l-1.89.27v1.16l1.43-.21c.12-.02.18.04.18.2v.53l-1.6.23v.53c0,.49.12.6.44.55l1.39-.2c.12-.02.18.04.18.2v.53l-1.71.25Z" style="fill:#fff; stroke-width:0px;"></path><g style="clip-path:url(#uuid-61edbc23-9793-42ad-8249-af41fdeee4de);"><rect x="28.13" y="91.89" width="43.62" height="7" style="fill:url(#uuid-266e03e1-cc16-44df-977f-d9897fb49631); stroke-width:0px;"></rect></g><g style="clip-path:url(#uuid-ad1b2e4e-9600-4364-9d9c-1f9537036a49);"><rect x="97.23" y="55.46" width="29.48" height="4.67" style="fill:url(#uuid-5a6e468d-78e6-4aa6-83da-8c4c8eaf8899); stroke-width:0px;"></rect></g><g style="clip-path:url(#uuid-62594fe5-9812-442a-a15c-0be4b6db04d3);"><rect x="28.13" y="31.21" width="98.57" height="37.16" style="fill:url(#uuid-bbdaf544-e088-4660-aa5d-7caae289522a); stroke-width:0px;"></rect></g><path d="m95.73,57.73c.04-.16.09-.32.13-.48.03-.12.06-.23.08-.35.04-.18.09-.37.12-.56.04-.2.08-.41.12-.61.02-.13.04-.25.06-.38.03-.21.06-.41.08-.62,0-.08.02-.16.03-.24.03-.29.05-.58.07-.87,0-.08.01-.16.01-.25.01-.31.02-.62.02-.93,0-10.76-8.72-19.49-19.49-19.49-5.43,0-10.33,2.22-13.86,5.8l4.24,2.99c.32.18.43.59.24.91-.13.22-.36.34-.6.33-.11,0-.22-.03-.32-.09l-5.11-2.38c-1.04,1.34-1.91,2.82-2.57,4.41l5.52,1.96c.36.09.57.46.48.81-.09.34-.43.55-.77.49-.01,0-.03,0-.04,0l-5.98-.96c-.46,1.66-.71,3.41-.71,5.22,0,.19,0,.38,0,.57l6.45-.94c.36-.09.72.14.8.5.09.36-.14.72-.5.8l-6.52,2.13c.04.23.08.46.12.68.04.19.08.38.12.58.01.05.02.1.03.16.04.19.09.37.14.56,0,.03.02.07.03.1,0,.01,0,.02,0,.03.08.29.17.58.26.86h0c.09.29.19.57.3.85,0,.01,0,.02.01.04.02.05.03.09.05.14.06.16.13.32.2.49.03.07.05.13.08.19.07.17.15.33.22.49.01.02.02.05.03.07,0,0,0,0,0,0,.1.22.21.44.32.65.11.21.22.42.34.63.04-.02,1.6-.89,2.36-1.22,1.72-.75,3.43-1.21,5.62-1.91,4.49-1.44,8.13-5.82,9.4-10.58-4.23,2.26-5.36-2.12-5.36-2.12,0,0,2.93.46,5.78.14-2.87-1.54-4.63-2.56-5.75-3.99-.49-.63-.87-1.34-1.16-2.21-.95-2.86-.1-2.29.86-.8.31.48.68.97,1.13,1.43.94.96,2.29,1.82,4.44,2.41,1.55.42,2.82.85,3.24,2.12,2.4,1.41,5.64,2.26,5.64,2.26,0,0-.08,1.9-1.35,2.18s-5.08.28-5.08.28c0,0-.56,5.08-1.41,8.04,3.53-.42,5.53-.71,7.48-.28,1.27.28.26,2.26-.87,3.95-.02.03-.04.06-.06.09h0s9.85-1.4,9.85-1.4c.38-.85.7-1.74.96-2.66" style="fill:#fff; stroke-width:0px;"></path><path d="m67.35,41.75l-7.45-5.26c-.71-.41-1.62-.17-2.03.54-.41.71-.17,1.62.54,2.03l8.27,3.85c.1.06.21.09.32.09.24,0,.47-.11.6-.33.18-.32.08-.73-.24-.91m-3.4,10.32l-9.43,1.37c-.8.19-1.29.99-1.1,1.78.16.67.75,1.13,1.41,1.14.12,0,.25,0,.38-.04l9.06-2.96c.36-.08.58-.44.5-.8-.08-.36-.44-.58-.8-.5m.56-5.18l-8.43-3c-.8-.2-1.6.27-1.81,1.07-.2.79.27,1.6,1.07,1.8l8.84,1.42s.03,0,.04,0c.34.06.68-.15.77-.49.09-.36-.12-.72-.48-.81" style="fill:#ce202f; stroke-width:0px;"></path></g></svg>