<svg version="1.0" xmlns="http://www.w3.org/2000/svg" width="1024.000000ptpx" height="1024.000000ptpx" viewBox="0 0 1024.000000 1024.000000" preserveAspectRatio="xMidYMid meet" transform="rotate(0) scale(1, 1)">

<g transform="translate(0.000000,1024.000000) scale(0.100000,-0.100000)" fill="#059669" stroke="none">
<path d="M5107 9033 c-34 -31 -138 -131 -232 -223 -270 -265 -344 -326 -834&#10;-695 -61 -46 -256 -199 -261 -205 -3 -3 -27 -24 -55 -45 -96 -76 -251 -211&#10;-381 -332 -629 -583 -976 -1211 -1079 -1953 -22 -155 -30 -465 -16 -622 45&#10;-518 236 -1010 561 -1443 254 -339 461 -536 1156 -1100 256 -207 527 -473 642&#10;-629 105 -143 193 -297 248 -437 60 -154 64 -160 104 -175 48 -17 87 -17 147&#10;1 95 28 191 141 176 206 -61 274 -300 605 -633 879 -486 399 -633 561 -779&#10;855 -84 169 -144 343 -173 508 -19 103 -22 157 -21 352 0 221 1 235 31 360 76&#10;323 195 570 407 850 94 124 221 259 576 615 284 284 436 460 565 655 216 323&#10;339 637 381 970 14 114 15 152 4 300 -29 405 -126 771 -323 1220 -41 93 -47&#10;102 -88 122 -25 12 -48 22 -53 23 -4 0 -35 -26 -70 -57z m-218 -1174 c-138&#10;-276 -327 -541 -815 -1139 -270 -332 -357 -453 -466 -645 -248 -437 -362 -810&#10;-409 -1330 -17 -199 1 -624 35 -800 6 -36 16 -89 22 -130 3 -22 19 -96 35&#10;-165 15 -69 31 -136 34 -150 12 -49 -68 117 -121 252 -139 356 -195 640 -197&#10;988 0 204 12 336 48 511 118 578 403 1083 985 1746 88 100 292 322 453 494&#10;160 171 326 349 367 394 41 46 76 81 78 80 2 -2 -20 -49 -49 -106z"/>
<path d="M5845 7208 c-71 -163 -193 -434 -246 -547 l-39 -83 151 -267 c83&#10;-146 167 -294 187 -329 l36 -62 405 2 405 3 36 65 c299 538 340 617 340 656 0&#10;16 -41 103 -99 208 -54 100 -136 250 -181 334 l-82 152 -428 0 -427 0 -58&#10;-132z"/>
<path d="M7273 6488 c-4 -7 -45 -87 -91 -178 -84 -165 -152 -286 -244 -433&#10;-42 -68 -47 -81 -36 -100 6 -12 60 -101 119 -197 59 -96 145 -245 191 -330&#10;l83 -155 392 0 c335 0 394 2 407 15 16 16 406 657 406 667 0 3 -46 80 -102&#10;172 -57 91 -150 252 -208 356 l-106 190 -401 3 c-315 2 -403 -1 -410 -10z"/>
<path d="M5370 6272 c-162 -228 -423 -512 -694 -757 -70 -63 -376 -412 -376&#10;-429 0 -2 236 -4 525 -5 l525 -1 25 42 c14 24 53 93 86 153 34 61 117 203 185&#10;318 l125 207 -39 58 c-21 31 -97 155 -167 275 -71 119 -132 217 -135 217 -3 0&#10;-30 -35 -60 -78z"/>
<path d="M6700 5683 c-14 -1 -189 -4 -389 -5 -350 -3 -364 -4 -378 -23 -12&#10;-17 -233 -384 -365 -608 l-40 -67 20 -38 c11 -20 85 -148 164 -284 80 -135&#10;160 -276 179 -313 21 -41 41 -67 54 -70 11 -2 195 -1 409 3 l388 7 60 110 c33&#10;61 123 219 200 352 l140 242 -115 188 c-64 103 -154 258 -201 342 -47 85 -89&#10;158 -93 161 -5 3 -19 5 -33 3z"/>
<path d="M7210 4738 c-100 -183 -277 -487 -296 -509 -8 -8 -14 -22 -14 -30 0&#10;-11 125 -241 361 -665 23 -40 36 -53 60 -58 40 -8 717 -8 746 0 15 4 40 36 75&#10;98 28 50 121 207 205 349 l154 258 -129 217 c-173 290 -204 345 -241 425 l-31&#10;67 -403 0 -403 0 -84 -152z"/>
<path d="M4801 4870 c-260 -6 -325 -10 -332 -21 -45 -71 -371 -659 -375 -675&#10;-3 -12 2 -37 12 -55 55 -108 349 -607 366 -621 19 -17 56 -18 464 -18 l444 0&#10;36 73 c20 39 103 192 185 338 82 146 149 270 149 275 0 13 -98 182 -223 386&#10;-53 86 -117 195 -143 242 l-46 86 -106 -2 c-59 -1 -253 -4 -431 -8z"/>
<path d="M5864 3933 c-37 -71 -106 -198 -154 -283 -48 -85 -101 -183 -119&#10;-217 l-33 -62 69 -133 c106 -206 306 -556 323 -565 19 -9 697 -17 766 -8 50 6&#10;51 7 78 63 15 31 81 156 146 277 153 285 190 359 190 377 0 8 -28 61 -61 119&#10;-196 334 -324 545 -333 551 -6 4 -190 8 -408 8 l-396 0 -68 -127z"/>
</g>
</svg>